<svg width="40" height="40" viewBox="0 0 40 40" fill="none" xmlns="http://www.w3.org/2000/svg">
<ellipse cx="20" cy="21.9353" rx="17.4189" ry="16.7738" fill="#313F86"/>
<path d="M20.1982 39.9994C14.8321 39.8887 10.2876 37.9106 6.63833 33.961C4.2304 31.3548 2.72741 28.2737 2.0381 24.7977C1.6939 23.0404 1.6012 21.2432 1.7628 19.4599C1.89562 17.9299 2.21423 16.4219 2.7116 14.9689C2.74754 14.8644 2.72382 14.8105 2.6505 14.7401C1.19029 13.3425 0.301508 11.6427 0.0650276 9.63832C-0.223925 7.17691 0.451377 4.98604 2.06541 3.10378C3.33335 1.62536 4.93661 0.668603 6.84534 0.310763C9.94403 -0.26947 12.6237 0.579861 14.8462 2.8275C14.9475 2.92989 15.0284 2.95648 15.1696 2.91516C17.1837 2.31948 19.2419 2.17218 21.3293 2.28607C22.2134 2.33421 23.0968 2.3784 23.9676 2.55229C24.2418 2.61039 24.512 2.686 24.7766 2.77864C24.8632 2.80774 24.9131 2.79768 24.9771 2.72978C26.3651 1.25674 28.0776 0.40669 30.0686 0.107053C32.0967 -0.197614 34.0173 0.14298 35.779 1.19351C38.0881 2.57098 39.5074 4.59658 39.8995 7.26565C40.3024 9.9922 39.4855 12.362 37.6069 14.3686C37.5196 14.4616 37.5109 14.5313 37.5526 14.6452C38.3586 16.8438 38.7513 19.1723 38.711 21.5135C38.6031 28.4249 34.7188 34.7374 28.5966 37.9393C26.752 38.904 24.7531 39.5393 22.6899 39.8165C21.864 39.929 21.0318 39.9901 20.1982 39.9994V39.9994ZM20.195 37.3522C28.9915 37.3659 36.1381 30.198 36.147 21.3522C36.156 12.523 29.035 5.36292 20.2241 5.34459C11.4132 5.32627 4.26885 12.4784 4.2516 21.3227C4.23435 30.1671 11.3712 37.3382 20.195 37.3522V37.3522Z" fill="#313F86"/>
<path d="M20.8293 25.8062C19.3673 25.8036 18.2071 24.667 18.0745 23.1022C17.9542 21.6847 18.9867 20.3337 20.3808 20.0992C21.0219 19.9815 21.6821 20.1154 22.2342 20.4751C22.345 20.5464 22.4088 20.5459 22.5114 20.4557C25.2613 18.0477 28.0211 15.6525 30.7311 13.1964C31.0433 12.9133 31.3954 12.8368 31.7813 12.9601C32.1471 13.0765 32.3229 13.4142 32.2364 13.8008C32.1777 14.0733 32.0326 14.3172 31.8246 14.4932C29.0413 16.9273 26.2605 19.3633 23.4821 21.8011C23.4034 21.8702 23.3997 21.9196 23.4281 22.0159C23.9491 23.7864 22.9459 25.4767 21.1971 25.7774C21.0769 25.7967 20.9525 25.7967 20.8293 25.8062Z" fill="#EDF8FF"/>
<path d="M10.3228 17.0166C10.3515 16.4953 10.6303 16.0132 11.1388 15.6912C11.6273 15.3817 12.1169 15.4328 12.5852 15.7503C14.3821 16.9685 16.1784 18.188 17.974 19.4088C18.0899 19.4873 18.0879 19.5329 18.0055 19.6372C17.5443 20.2222 17.1067 20.825 16.811 21.5304C16.8082 21.5367 16.8035 21.5418 16.8011 21.5485C16.7483 21.6823 16.7223 21.8985 16.6371 21.9284C16.5189 21.9707 16.3907 21.8069 16.2705 21.7271C14.4833 20.5451 12.6977 19.3612 10.9137 18.1753C10.5483 17.9352 10.322 17.6105 10.3228 17.0166Z" fill="#EDF8FF"/>
</svg>
