<svg width="232" height="175" viewBox="0 0 232 175" fill="none" xmlns="http://www.w3.org/2000/svg">
<path fill-rule="evenodd" clip-rule="evenodd" d="M172.283 53.1996C172.142 52.4715 171.978 51.7441 171.79 51.0181C165.938 28.3873 139.463 15.661 112.659 22.5932C91.7949 27.9889 76.8803 43.7041 74.0538 61.0771C70.1773 61.4604 66.2342 62.1544 62.2733 63.1787C31.5696 71.1192 11.4239 95.9021 17.2766 118.533C23.1293 141.164 52.7641 153.073 83.4678 145.132C95.7556 141.954 106.352 136.079 114.268 128.724C127.378 139.757 149.791 143.877 172.918 137.896C205.409 129.493 227.003 104.336 221.151 81.7051C216.559 63.9484 196.434 53.0232 172.283 53.1996Z" fill="#EDF8FF"/>
</svg>
