<svg width="48" height="31" viewBox="0 0 48 31" fill="none" xmlns="http://www.w3.org/2000/svg">
<path fill-rule="evenodd" clip-rule="evenodd" d="M30.4622 4.45433C28.6962 1.77113 25.6575 0 22.2052 0C16.7499 0 12.3276 4.42237 12.3276 9.87765C12.3276 9.90955 12.3277 9.94141 12.328 9.97324C5.36333 10.6535 0 14.88 0 19.9923C0 25.5785 6.4036 30.107 14.3028 30.107C17.8111 30.107 21.0244 29.2138 23.5127 27.7313C26.0428 29.2274 29.1367 30.1072 32.4776 30.1072C41.0315 30.1072 47.9658 24.3404 47.9658 17.2267C47.9658 10.113 41.0315 4.34626 32.4776 4.34626C31.7946 4.34626 31.1218 4.38303 30.4622 4.45433Z" fill="#EDF8FF"/>
</svg>
