<svg width="607" height="381" viewBox="0 0 607 381" fill="none" xmlns="http://www.w3.org/2000/svg">
<path fill-rule="evenodd" clip-rule="evenodd" d="M385.49 56.368C363.142 22.413 324.689 0 281 0C211.964 0 156 55.9644 156 125C156 125.404 156.002 125.807 156.006 126.21C67.8704 134.82 0 188.305 0 253C0 323.692 81.0365 381 181 381C225.398 381 266.062 369.696 297.551 350.935C329.569 369.867 368.721 381 411 381C519.248 381 607 308.022 607 218C607 127.978 519.248 55 411 55C402.354 55 393.84 55.4655 385.49 56.368Z" fill="#EDF8FF"/>
</svg>
