<svg width="347" height="242" viewBox="0 0 347 242" fill="none" xmlns="http://www.w3.org/2000/svg">
<path fill-rule="evenodd" clip-rule="evenodd" d="M207.756 44.3851C193.697 27.8791 171.87 18.5404 148.744 21.4096C112.201 25.9434 86.2519 59.2428 90.7857 95.7859C90.8122 95.9998 90.8397 96.2132 90.8682 96.4263C44.7803 106.772 12.3666 139.541 16.6154 173.786C21.258 211.206 67.9172 236.219 120.832 229.654C144.333 226.739 165.116 218.084 180.552 206.086C198.744 214.004 220.2 217.326 242.579 214.55C299.879 207.441 341.537 163.048 335.625 115.396C329.713 67.7433 278.469 34.8766 221.17 41.9856C216.593 42.5534 212.117 43.359 207.756 44.3851Z" fill="#EDF8FF"/>
</svg>
