<svg width="452" height="340" viewBox="0 0 452 340" fill="none" xmlns="http://www.w3.org/2000/svg">
<path fill-rule="evenodd" clip-rule="evenodd" d="M335.817 103.697C335.541 102.278 335.221 100.86 334.855 99.445C323.447 55.3328 271.844 30.5266 219.595 44.0388C178.928 54.5562 149.856 85.1884 144.347 119.052C136.79 119.799 129.104 121.152 121.384 123.149C61.536 138.626 22.2678 186.933 33.6759 231.046C45.084 275.158 102.848 298.371 162.696 282.893C186.648 276.699 207.303 265.246 222.733 250.909C248.286 272.415 291.975 280.447 337.054 268.788C400.385 252.41 442.477 203.373 431.069 159.26C422.118 124.649 382.89 103.353 335.817 103.697Z" fill="#EDF8FF"/>
</svg>
