<svg width="168" height="106" viewBox="0 0 168 106" fill="none" xmlns="http://www.w3.org/2000/svg">
<path fill-rule="evenodd" clip-rule="evenodd" d="M106.692 15.601C100.507 6.20328 89.8644 0 77.7727 0C58.6656 0 43.1763 15.4893 43.1763 34.5964C43.1763 34.7082 43.1768 34.8198 43.1779 34.9314C18.7846 37.3141 0 52.1173 0 70.0231C0 89.5887 22.4285 105.45 50.0956 105.45C62.3835 105.45 73.6381 102.321 82.3534 97.1286C91.2152 102.369 102.051 105.45 113.753 105.45C143.713 105.45 168 85.2517 168 60.3361C168 35.4205 143.713 15.2224 113.753 15.2224C111.36 15.2224 109.003 15.3512 106.692 15.601Z" fill="#EDF8FF"/>
</svg>
