<svg width="445" height="362" viewBox="0 0 445 362" fill="none" xmlns="http://www.w3.org/2000/svg">
<path d="M311.114 33.1284C348.645 11.4598 380.607 27.2632 384.166 64.8388C384.198 104.45 357.247 63.5878 351.924 83.4535C346.601 103.319 371.165 134.813 325.256 138.48C279.347 142.148 302.471 182.406 303.71 209.358C304.988 237.167 308.637 254.54 233.415 253.973C158.193 253.406 190.587 285.081 110.169 308.672C29.7521 332.263 69.0066 294.196 86.8385 254.301C113.95 193.644 125.393 251.856 181.746 244.174C238.099 236.491 201.201 205.738 177.845 194.37C154.489 183.001 183.388 167.324 184.563 115.26C185.867 57.4984 214.084 133.816 265.753 143.616C317.422 153.415 278.03 132.346 276.804 97.6052C276.061 76.5399 273.583 54.7969 311.114 33.1284Z" fill="#EDF8FF" stroke="#EDF8FF"/>
</svg>
