<svg width="272" height="318" viewBox="0 0 272 318" fill="none" xmlns="http://www.w3.org/2000/svg">
<path d="M262.565 248.95C281.865 285.535 265.628 315.444 229.659 317.469C191.877 316.057 231.833 291.841 213.08 286.04C194.326 280.239 163.393 302.521 161.568 258.6C159.742 214.68 120.502 235.268 94.7508 235.468C68.1804 235.674 51.4779 238.521 54.7588 166.797C58.0397 95.073 26.6487 124.815 7.07724 47.2554C-12.4942 -30.3043 22.384 8.52251 59.7854 26.9835C116.651 55.0518 60.7125 63.8452 65.9872 117.873C71.262 171.902 101.938 137.829 113.631 115.966C125.325 94.1042 139.225 122.239 188.839 125.256C243.884 128.604 170.066 152.737 158.837 201.661C147.609 250.584 169.138 213.78 202.318 213.877C222.437 213.935 243.265 212.364 262.565 248.95Z" fill="#EDF8FF" stroke="#EDF8FF"/>
</svg>
