<svg width="369" height="497" viewBox="0 0 369 497" fill="none" xmlns="http://www.w3.org/2000/svg">
<path d="M366 165C381.482 109.345 293.733 -6.86246 244.047 1.0468C192.905 14.1854 254.618 35.3768 230.747 48.8576C206.875 62.3384 158.051 41.1102 168.591 101.589C179.132 162.069 110.202 177.131 75.0005 184.5C38.6793 192.103 -51.525 257.013 44.0005 287.5C67.5005 295 24.1689 324.199 20.4747 435.85C16.7805 547.502 161.973 480.63 153.5 423C134.993 297.124 88.7469 397.295 79.9132 321.999C71.0796 246.702 123.053 284.098 145.498 310.463C167.943 336.829 178.564 294.309 245.376 275.469C319.501 254.567 278.5 172.5 204 212C142.065 244.838 199.261 124.321 237.474 150.531C287 184.5 350.518 220.655 366 165Z" fill="#EDF8FF" stroke="#EDF8FF"/>
</svg>
