<svg width="453" height="514" viewBox="0 0 453 514" fill="none" xmlns="http://www.w3.org/2000/svg">
<path d="M1.76946 359.33C-2.69607 340.428 13.3627 295.323 21.9503 275.133C33.5542 243.774 10.7864 204.254 21.9503 176.761C33.1141 149.268 127.577 191.366 116.843 131.226C106.108 71.0857 115.125 7.07921 216.888 1.49475C318.651 -4.08971 322.945 38.0085 288.165 107.17C253.385 176.331 406.673 196.951 445.317 293.605C483.962 390.259 344.843 348.161 288.165 326.252C231.487 304.344 209.589 382.956 235.351 428.491C260.998 473.82 231.753 494.033 208.191 510.318L207.871 510.54C184.255 526.863 176.956 457.702 167.939 428.491C158.922 399.28 125.86 384.674 78.6282 391.977C31.3966 399.28 7.35138 382.956 1.76946 359.33Z" fill="#EDF8FF" stroke="#EDF8FF"/>
</svg>
