<svg width="379" height="417" viewBox="0 0 379 417" fill="none" xmlns="http://www.w3.org/2000/svg">
<path d="M13.6327 322.371C-14.2525 370.669 6.0848 411.801 54.4407 416.38C105.417 416.422 52.8307 381.739 78.3958 374.889C103.961 368.039 144.49 399.65 149.21 340.57C153.929 281.49 205.737 311.248 240.422 312.842C276.209 314.487 298.566 319.183 297.836 222.38C297.106 125.578 337.869 167.265 368.228 63.7763C398.588 -39.7122 349.599 10.8042 298.258 33.7519C220.199 68.642 295.112 83.3677 285.225 155.888C275.339 228.409 235.763 180.924 221.133 150.867C206.503 120.811 186.328 158.001 119.328 159.514C44.9943 161.191 143.208 197.504 155.818 263.996C168.429 330.488 141.316 279.795 96.6075 278.217C69.4988 277.261 41.5178 274.072 13.6327 322.371Z" fill="#EDF8FF" stroke="#EDF8FF"/>
</svg>
