<svg width="288" height="248" viewBox="0 0 288 248" fill="none" xmlns="http://www.w3.org/2000/svg">
<path d="M251.819 36.0656C269.894 54.1413 264.57 73.9265 280.513 108.17C305.599 154.961 249.852 193.271 233.679 211.145C217.506 229.019 173.892 243.712 141.351 223.939C108.811 204.166 77.3075 264.591 23.9207 242.273C-29.466 219.954 44.5747 183.341 48.4212 131.009C52.2676 78.677 28.4406 83.7904 5.90271 50.6126C-16.6352 17.4349 38.4606 18.0548 51.2284 5.28698C63.9962 -7.48081 70.1589 11.4497 99.9336 32.287C129.708 53.1242 146.946 32.4841 176.732 20.5615C206.517 8.63899 233.743 17.9899 251.819 36.0656Z" fill="#EDF8FF" stroke="#EDF8FF"/>
</svg>
