<svg width="494" height="484" viewBox="0 0 494 484" fill="none" xmlns="http://www.w3.org/2000/svg">
<path d="M20.9618 403.744C-7.96425 400.223 -8.49981 481.5 35.5271 463.84C81.1562 457.048 162.795 473.583 184.127 481.5C220.5 495 232.319 392.011 256.832 386.069C281.345 380.128 294.119 377.032 340.729 389.87C387.339 402.708 419.791 346.574 393.551 328.799C367.311 311.025 328.235 329.271 335.788 297.09C341.83 271.345 420.136 304.697 461.899 277.496C563.244 211.485 389.547 -34 315.032 4.82987C221.889 53.3673 261.081 79.3385 296.15 79.2494C331.22 79.1603 369.415 133.025 340.729 168.5C312.043 203.975 152.194 197.147 184.127 274.609C216.06 352.071 218.083 362.027 188.818 402.554C150.435 455.707 57.1194 408.144 20.9618 403.744Z" fill="#EDF8FF" stroke="#EDF8FF"/>
</svg>
