<svg width="487" height="465" viewBox="0 0 487 465" fill="none" xmlns="http://www.w3.org/2000/svg">
<path d="M13.9619 403.744C-14.9642 400.223 11.6196 442.341 28.5272 463.84C74.1563 457.048 169.8 439.84 187.343 425.349C209.271 407.236 225.32 392.011 249.832 386.069C274.345 380.128 287.12 377.032 333.729 389.87C380.339 402.708 412.791 346.574 386.551 328.799C360.311 311.025 321.235 329.271 328.788 297.09C334.83 271.345 413.137 304.697 454.899 277.496C556.244 211.485 382.547 -34 308.032 4.82987C214.889 53.3673 254.081 79.3386 289.15 79.2494C324.22 79.1603 405.985 164.657 377.298 200.132C348.612 235.607 145.194 197.147 177.127 274.609C209.06 352.071 211.083 362.027 181.818 402.554C143.435 455.707 50.1195 408.144 13.9619 403.744Z" fill="#EDF8FF" stroke="#EDF8FF"/>
</svg>
