<svg width="414" height="444" viewBox="0 0 414 444" fill="none" xmlns="http://www.w3.org/2000/svg">
<path d="M371.012 292.504C363.34 302.729 333.764 313.617 319.936 317.782C299.188 325.129 288.809 353.302 270.202 359.243C251.595 365.183 233.045 299.658 207.167 330.435C181.288 361.211 145.126 383.627 99.3917 334.506C53.6574 285.386 73.1303 265.471 122.762 253.915C172.394 242.358 118.18 156.131 150.75 95.8474C183.32 35.564 220.699 123.677 233.523 161.579C246.347 199.482 295.325 177.426 307.482 145.204C319.585 113.127 342.135 119.4 360.304 124.455L360.551 124.523C378.762 129.589 346.874 162.43 335.908 179.303C324.942 196.175 331.5 219.054 355.108 239.867C378.717 260.681 380.604 279.723 371.012 292.504Z" fill="#EDF8FF" stroke="#EDF8FF"/>
</svg>
