<svg width="412" height="388" viewBox="0 0 412 388" fill="none" xmlns="http://www.w3.org/2000/svg">
<path d="M1 148.064C1 114.34 24.4242 100.85 41.4961 54.0326C61.7442 -13.0194 149.486 3.24765 181.247 1.66062C213.009 0.0735964 267.401 27.0531 279.312 75.8542C291.222 124.655 376.979 97.6758 405.961 168.299C434.944 238.921 331.718 204.007 279.312 249.237C226.905 294.467 253.902 311.925 243.977 363.9C234.051 415.875 183.233 363.9 159.411 363.9C135.59 363.9 147.501 340.491 139.163 293.277C130.826 246.063 95.491 249.237 56.5829 232.573C17.6749 215.91 1 181.788 1 148.064Z" fill="#EDF8FF" stroke="#EDF8FF"/>
</svg>
