<svg width="284" height="296" viewBox="0 0 284 296" fill="none" xmlns="http://www.w3.org/2000/svg">
<path d="M276.5 198C295.8 234.586 268.628 293.444 232.659 295.47C194.877 294.057 234.833 269.841 216.08 264.04C197.326 258.24 166.393 280.521 164.567 236.6C162.742 192.68 115.206 171.863 99.0001 191.877C62.7854 236.6 54.4779 216.521 57.7588 144.797C61.0397 73.073 -5.57709 122.244 2.00007 66.4999C6.18057 35.7444 25.384 -13.4774 62.7854 4.98358C119.651 33.0519 63.7124 41.8453 68.9872 95.8735C74.2619 149.902 104.938 115.829 116.631 93.9665C128.325 72.1043 176.608 74.7891 216.079 105C256.899 136.244 229.079 150.5 198.5 144.797C149.155 135.595 172.138 191.78 205.318 191.877C225.437 191.935 257.2 161.414 276.5 198Z" fill="#EDF8FF" stroke="#EDF8FF"/>
</svg>
