<svg width="375" height="390" viewBox="0 0 375 390" fill="none" xmlns="http://www.w3.org/2000/svg">
<path d="M13.6327 295.371C-14.2525 343.669 6.08479 384.801 54.4407 389.38C105.417 389.422 52.8307 354.739 78.3958 347.889C103.961 341.039 179.5 358 169.5 320C154.416 262.684 205.737 284.248 240.422 285.842C276.209 287.487 298.566 292.183 297.836 195.38C297.106 98.5781 341.14 172.489 371.5 69.0002C383.234 29.0002 349.599 -16.1959 298.258 6.75188C220.199 41.642 295.112 56.3677 285.225 128.888C275.339 201.409 220.788 65.6326 201.5 75.9999C172.056 91.8258 213.918 106.233 164.5 151.5C130.672 182.487 211.177 214.5 143.5 214.5C111.181 214.5 141.316 252.795 96.6075 251.217C69.4988 250.261 41.5178 247.072 13.6327 295.371Z" fill="#EDF8FF" stroke="#EDF8FF"/>
</svg>
