<svg width="417" height="452" viewBox="0 0 417 452" fill="none" xmlns="http://www.w3.org/2000/svg">
<path d="M374.012 300.505C366.339 310.73 336.764 321.617 322.935 325.782C302.188 333.129 291.808 361.303 273.201 367.243C254.594 373.183 234.5 103.848 221.5 247.868C217.885 287.916 148.126 391.627 102.391 342.507C56.6571 293.386 61.5001 197.5 125.762 261.915C161.752 297.991 121.18 164.131 153.75 103.848C186.319 43.5644 253.676 34.5976 266.5 72.5002C279.324 110.403 300.5 187.303 310.482 153.204C336.816 63.2425 363.551 113.621 363.551 132.524C363.551 171 349.874 170.431 338.908 187.303C327.942 204.175 334.5 227.055 358.108 247.868C381.717 268.681 383.603 287.723 374.012 300.505Z" fill="#EDF8FF" stroke="#EDF8FF"/>
</svg>
