<svg width="436" height="418" viewBox="0 0 436 418" fill="none" xmlns="http://www.w3.org/2000/svg">
<path d="M1 191.064C1 157.34 164.176 187.817 181.247 141C201.496 73.9481 37.2525 167.84 114 55.5001C131.939 29.2416 256.732 16.4159 305 2.4999C380.688 -19.3217 486 156 405.961 211.299C343.155 254.691 311.688 215.263 239 209C170.029 203.057 418 323 243.977 406.9C196.313 429.88 183.233 406.9 159.411 406.9C135.59 406.9 212.418 351.418 204.08 304.204C195.743 256.99 148.697 211.068 121.5 243.5C28 355 1 224.788 1 191.064Z" fill="#EDF8FF" stroke="#EDF8FF"/>
</svg>
