<svg width="295" height="305" viewBox="0 0 295 305" fill="none" xmlns="http://www.w3.org/2000/svg">
<path d="M258.819 95.066C178 175.5 271.57 132.927 287.513 167.171C312.599 213.962 256.852 252.271 240.679 270.145C224.506 288.02 186.457 313.868 152 241C121.5 176.5 84.3081 323.591 30.9213 301.273C-22.4654 278.955 3.25228 184.373 55.4217 190.009C115.5 196.5 35.4412 142.791 12.9032 109.613C-9.63466 76.4353 45.4611 77.0552 58.2289 64.2874C70.9967 51.5196 77.1594 70.4502 106.934 91.2874C136.709 112.125 128.215 15.9227 158 4.0002C214 -18.4154 276.938 77.0335 258.819 95.066Z" fill="#EDF8FF" stroke="#EDF8FF"/>
</svg>
