<svg width="460" height="595" viewBox="0 0 460 595" fill="none" xmlns="http://www.w3.org/2000/svg">
<path d="M425 208C440.482 152.345 352.733 36.1375 303.047 44.0468C251.906 57.1854 313.618 78.3768 289.747 91.8576C265.875 105.338 217.051 84.1102 227.592 144.589C238.133 205.069 169.202 220.131 134.001 227.5C97.6794 235.103 7.47517 300.013 103.001 330.5C126.501 338 83.1691 367.199 79.4749 478.85C75.7807 590.502 220.973 523.63 212.5 466C193.993 340.124 147.747 440.295 138.913 364.999C130.08 289.702 182.053 327.098 204.498 353.463C226.944 379.829 237.564 337.309 304.376 318.469C378.502 297.567 337.5 215.5 263 255C201.065 287.838 258.261 167.321 296.474 193.531C346 227.5 409.518 263.655 425 208Z" fill="#EDF8FF" stroke="#EDF8FF"/>
</svg>
