<svg width="512" height="390" viewBox="0 0 512 390" fill="none" xmlns="http://www.w3.org/2000/svg">
<path d="M209.5 37.4999C247.031 15.8314 460.941 54.4244 464.5 92.0001C464.532 131.612 397.323 100.74 392 120.605C386.677 140.471 406.909 199.332 361 203C315.091 206.668 302.471 205.406 303.709 232.358C304.988 260.167 308.637 277.54 233.415 276.973C158.193 276.406 289.917 319.909 209.5 343.5C129.083 367.091 69.0065 317.196 86.8384 277.301C113.95 216.644 125.393 274.856 181.746 267.174C238.099 259.491 137 232.358 177.845 217.37C202.23 208.421 129.669 113.5 181.746 113.5C213.183 113.5 214.084 156.816 265.753 166.616C317.422 176.415 307.403 104.108 276.804 120.605C227.8 147.025 171.969 59.1685 209.5 37.4999Z" fill="#EDF8FF" stroke="#EDF8FF"/>
</svg>
