<svg width="457" height="548" viewBox="0 0 457 548" fill="none" xmlns="http://www.w3.org/2000/svg">
<path d="M7.80366 395.517C-27.4658 311.188 85.4467 331.378 94.0343 311.188C105.638 279.829 16.8206 240.441 27.9845 212.949C39.1483 185.456 133.612 227.554 122.877 167.414C112.143 107.274 222.271 6.7722 324.034 1.18774C425.797 -4.39671 359.034 116.188 294.199 143.358C222.801 173.278 412.708 233.139 451.352 329.793C489.996 426.447 258.034 296.688 294.199 362.44C323.483 415.683 278.322 501.731 241.386 464.679C197.034 420.188 266.534 557.688 213.905 546.727C185.8 540.874 163.4 526.173 149.034 499.188C129.595 462.674 200.906 456.711 185.534 410.688C170.393 365.357 17.1708 417.915 7.80366 395.517Z" fill="#EDF8FF" stroke="#EDF8FF"/>
</svg>
