<svg width="295" height="501" viewBox="0 0 295 501" fill="none" xmlns="http://www.w3.org/2000/svg">
<path d="M290.284 85.7903C305.766 30.1355 274.733 -5.86237 225.046 2.0469C173.905 15.1855 235.618 36.3769 211.746 49.8577C187.875 63.3385 139.05 42.1103 149.591 102.59C160.132 163.069 100.473 146.616 65.2717 153.985C28.9505 161.588 5.31198 162.658 31.0723 259.565C56.8326 356.472 5.16837 325.199 1.47417 436.85C-2.22001 548.502 33.8564 485.166 79.4194 448.875C148.694 393.697 69.7464 398.295 60.9127 322.999C52.0791 247.702 104.052 285.098 126.498 311.464C148.943 337.829 159.564 295.309 226.376 276.469C300.501 255.567 192.601 244.538 162.761 181.104C132.92 117.671 173.222 161.508 218.474 151.531C245.912 145.481 274.802 141.445 290.284 85.7903Z" fill="#EDF8FF" stroke="#EDF8FF"/>
</svg>
