<svg width="295" height="501" viewBox="0 0 295 501" fill="none" xmlns="http://www.w3.org/2000/svg">
<path d="M290.285 85.7903C305.767 30.1356 274.733 -5.86233 225.046 2.04693C173.905 15.1855 235.618 36.3769 211.746 49.8577C187.875 63.3385 139.05 42.1103 149.591 102.59C160.132 163.069 100.474 146.616 65.2719 153.985C28.9506 161.588 5.31215 162.658 31.0725 259.565C56.8328 356.472 5.16854 325.199 1.47434 436.85C-2.21984 548.502 33.8566 485.166 79.4195 448.875C148.694 393.697 69.7466 398.295 60.9129 322.999C52.0793 247.702 104.053 285.098 126.498 311.464C148.943 337.829 159.564 295.309 226.376 276.469C300.501 255.567 192.601 244.538 162.761 181.104C132.921 117.671 173.223 161.508 218.474 151.531C245.912 145.481 274.803 141.445 290.285 85.7903Z" fill="#EDF8FF" stroke="#EDF8FF"/>
</svg>
