<svg width="180" height="26" viewBox="0 0 180 26" fill="none" xmlns="http://www.w3.org/2000/svg">
<path d="M12.6024 6.26081C12.8263 5.5867 13.1541 4.8801 13.2873 4.13831C13.4952 2.96335 12.9302 2.00768 11.8428 1.55556C10.2437 0.889573 8.73527 1.2334 7.59992 2.47062C5.61972 4.63645 3.85007 6.94305 3.2744 9.97249C2.81599 12.3711 2.12572 14.7373 2.31761 17.2199C2.49084 19.494 3.38367 21.3295 5.33189 22.6155C8.38348 24.6189 12.5065 22.916 13.887 20.8314C14.3001 20.2087 14.4893 19.4074 14.6732 18.6656C14.7987 17.9924 14.8877 17.3128 14.9397 16.6297C15.4141 13.1102 17.9007 11.3749 21.3361 12.1898C21.7971 12.3008 22.2422 12.4605 22.8365 12.6635C23.1438 12.1768 23.4113 11.6652 23.6361 11.1339C23.9506 10.2107 24.1105 9.23882 24.4356 8.31564C25.8108 4.43611 29.8938 3.17181 33.1 5.64085C33.6178 6.07383 34.0278 6.62479 34.2967 7.24897C35.1442 9.11699 35.8957 11.0256 35.8957 13.1481C35.9361 13.5526 36.0137 13.9523 36.1276 14.342C36.9671 14.4016 37.7267 14.4097 38.4729 14.5207C40.7037 14.8483 41.863 15.9393 42.3907 18.181C42.5693 18.9417 42.6572 19.7214 42.8358 20.4821C42.9387 21.0581 43.1031 21.6209 43.3262 22.1607C43.8592 23.2788 45.2344 23.4926 45.9087 22.4639C46.6827 21.3468 47.284 20.1161 47.6917 18.8145C48.4912 15.9962 49.0429 13.1129 49.7385 10.2649C49.9587 9.31556 50.261 8.38787 50.642 7.49263C51.2123 6.19584 52.2597 5.61919 53.6722 5.70582C55.2207 5.80057 55.927 6.37723 56.2441 7.94203C56.7558 10.4679 56.8864 12.9965 56.0895 15.4953C55.6075 16.9931 55.5511 18.5986 55.927 20.1275C56.0657 20.5589 56.2286 20.9819 56.4147 21.3945C56.9717 21.1238 57.5607 20.9938 57.9125 20.6283C59.874 18.5925 60.6949 16.0016 61.2492 13.2781C61.601 11.5644 62.0035 9.85066 62.5205 8.18027C62.9004 7.05018 63.6999 6.11559 64.7486 5.57587C66.2171 4.75015 67.5843 5.30514 67.7309 6.97824C67.8309 8.34242 67.7475 9.71409 67.483 11.0554C67.0699 13.2645 66.4569 15.4331 65.9559 17.626C65.7827 18.384 65.5641 19.1718 65.6068 19.9326C65.6681 21.0155 65.9026 22.1282 67.0752 22.5884C68.2479 23.0486 69.3859 23.0378 70.3694 22.2419C70.9817 21.7699 71.4847 21.1674 71.8432 20.4767C72.681 18.7181 73.43 16.9172 74.0872 15.0811C74.6069 13.6111 74.8708 12.0517 75.3345 10.56C75.7369 9.25678 76.2139 7.97857 76.763 6.73188C76.9061 6.41523 77.1569 6.1617 77.4693 6.01795C77.7817 5.87419 78.1347 5.84987 78.4634 5.94948C78.7439 6.02754 78.9951 6.18873 79.185 6.41247C79.3748 6.63622 79.4948 6.91236 79.5295 7.20565C79.6134 7.88185 79.6268 8.56518 79.5694 9.24424C79.4815 10.6114 79.3216 11.9732 79.239 13.3431C79.2311 13.8738 79.2551 14.4045 79.3109 14.9322C80.1664 15.6659 80.982 15.406 81.6136 15.0622C82.3812 14.675 83.0388 14.0955 83.5245 13.3782C84.0974 12.3584 84.5347 11.266 84.8251 10.1295C85.2035 8.81648 85.4088 7.45472 85.7126 6.11733C85.8165 5.66521 85.9978 5.22934 86.1443 4.76369C87.2904 5.19685 87.5462 5.45404 87.397 6.34745C87.0931 8.17486 86.7253 9.99686 86.3309 11.808C85.8379 14.1038 85.2862 16.3833 84.7905 18.6764C84.6641 19.2503 84.6051 19.8373 84.6146 20.4253C84.6465 21.9901 85.8698 22.9972 87.349 22.5911C89.2146 22.0794 90.6165 20.9532 91.3174 19.0717C91.7918 17.7884 92.2289 16.4916 92.7033 15.2084C92.8999 14.6569 93.1351 14.1204 93.4069 13.603C94.3157 11.9244 95.571 10.8524 97.6178 11.226C97.8564 11.2146 98.0919 11.1662 98.316 11.0825C98.4919 10.6304 98.7238 10.1106 98.8971 9.56911C99.5047 7.67401 100.382 5.96301 101.781 4.5471C104.542 1.7559 108.206 2.62764 109.438 6.42325C109.92 7.90684 110.259 9.43916 109.971 11.0446C109.889 11.6729 109.848 12.3059 109.848 12.9397C110.017 13.117 110.206 13.2741 110.41 13.408C113.161 14.5667 113.217 14.6642 112.993 17.7397C112.95 18.3244 112.841 18.9417 112.972 19.4913C113.136 20.1393 113.424 20.7482 113.819 21.2835C114.278 21.9062 115.037 21.9116 115.6 21.4053C116.637 20.5133 117.405 19.341 117.814 18.0239C118.164 16.8065 118.437 15.5676 118.632 14.315C119.003 11.9921 119.317 9.66386 120.197 7.46285C120.375 7.01073 120.525 6.54237 120.73 6.10921C121.17 5.18061 121.796 4.40903 122.905 4.43881C124.08 4.47401 124.845 5.251 125.303 6.28789C125.539 6.82471 125.662 7.40568 125.663 7.99347C125.669 9.45798 125.59 10.9216 125.426 12.3766C125.239 13.8277 124.837 15.249 124.576 16.7082C124.368 17.848 124.043 19.0013 124.616 20.3495C125.165 20.1843 125.746 20.1492 126.159 19.8595C127.153 19.1664 127.697 18.0943 127.971 16.9383C128.376 15.2273 128.701 13.4974 129.008 11.7674C129.362 9.73967 129.607 7.67401 130.727 5.89533C131.173 5.15191 131.736 4.48717 132.393 3.92714C133.379 3.13391 134.405 3.31259 135.212 4.25472C136.142 5.33763 136.619 6.56403 136.398 8.04491C136.017 10.56 135.753 13.0967 134.834 15.4953C134.375 16.5703 134.185 17.7442 134.282 18.9119C134.299 19.2557 134.404 19.589 134.587 19.8787C134.769 20.1684 135.024 20.4045 135.324 20.5634C135.911 20.8639 136.798 20.6283 137.416 19.9651C138.506 18.7928 138.994 17.3065 139.493 15.8148C140.292 13.4053 141.092 10.9931 142.022 8.62968C142.444 7.53584 143.021 6.51064 143.735 5.5867C144.388 4.73153 145.224 4.03815 146.179 3.55885C147.134 3.07956 148.184 2.82688 149.25 2.81986C151.416 2.77384 152.674 3.762 153.309 5.85743C153.796 7.46014 154.063 9.10616 153.799 10.782C153.514 12.6175 153.205 14.4449 152.938 16.2777C152.809 17.2467 152.752 18.224 152.768 19.2016C152.768 20.0544 153.511 20.5552 154.388 20.4415C155.561 20.3008 156.318 19.54 156.832 18.5762C157.61 17.117 158.308 15.5982 158.985 14.0957C160.259 11.2449 161.483 8.36978 162.754 5.51631C163.054 4.79101 163.497 4.1353 164.054 3.58894C164.612 3.04259 165.273 2.61699 165.997 2.33797C167.671 1.68551 168.662 1.93458 169.848 3.32342C170.981 4.64186 171.586 6.16877 171.397 7.91225C171.154 10.1458 170.811 12.3657 170.485 14.5884C170.286 15.942 169.984 17.2957 169.832 18.6493C169.721 19.6781 170.515 20.2547 171.533 20.003C172.905 19.6456 173.876 18.7684 174.731 17.6368C176.064 15.8527 177.516 14.1471 178.934 12.4226C179.267 12.0896 179.624 11.7811 180 11.4994C179.947 12.0625 180 12.3793 179.888 12.5823C178.556 14.7292 177.204 16.8815 175.802 18.985C174.846 20.4172 173.404 21.2564 171.847 21.8304C169.694 22.6263 167.906 21.3106 167.967 18.9823C167.996 17.8182 168.268 16.6568 168.46 15.498C168.766 13.6652 169.137 11.8432 169.406 10.005C169.651 8.34271 169.673 6.68044 168.798 5.13188C168.018 3.75387 166.967 3.53729 165.675 4.47672C164.609 5.24829 163.99 6.37181 163.513 7.53865C162.525 9.9752 161.648 12.4686 160.619 14.8997C159.905 16.6053 159.081 18.2703 158.22 19.9109C157.877 20.4996 157.444 21.0288 156.936 21.4784C155.627 22.7373 154.087 23.0703 152.392 22.426C151.678 22.1552 151.006 21.7735 150.166 21.3728C149.615 21.7519 148.988 22.185 148.375 22.6128C147.067 23.5441 145.686 23.5549 144.244 22.9972C142.571 22.3475 141.891 20.9992 142.464 19.2476C142.929 17.7409 143.864 16.4292 145.129 15.5116C146.307 14.6588 147.467 13.7816 148.629 12.9099C149.162 12.5038 149.695 12.0517 150.244 11.6754C152.376 10.2432 152.192 8.37249 151.067 5.9603C150.617 4.99651 149.66 4.60667 148.615 4.78264C147.051 5.02629 145.59 5.59482 144.706 7.01344C143.965 8.15505 143.34 9.36954 142.84 10.6385C142.163 12.4686 141.774 14.3989 141.11 16.2371C140.56 17.7975 139.905 19.318 139.151 20.7881C138.533 21.9928 137.392 22.5478 136.07 22.7129C133.794 22.9999 131.849 21.1184 132.209 18.8172C132.452 17.3703 132.823 15.9486 133.317 14.5695C134.029 12.5119 134.232 10.3678 134.565 8.24525C134.595 8.05193 134.606 7.85608 134.599 7.66048C134.578 6.84829 134.405 6.09567 133.611 5.68416C133.078 5.41344 132.342 5.85743 131.908 6.91327C131.462 7.99372 131.113 9.11273 130.865 10.2568C130.415 12.3576 130.164 14.5099 129.647 16.5918C129.303 17.8099 128.804 18.9775 128.163 20.0652C127.526 21.1803 126.52 22.0294 125.325 22.4612C124.053 22.962 122.993 22.4612 122.675 21.0777C122.486 20.2219 122.436 19.3401 122.529 18.4679C122.693 17.1078 122.938 15.759 123.262 14.4287C123.73 12.4252 123.909 10.3633 123.795 8.30752C123.735 7.82981 123.604 7.36418 123.406 6.9268C123.275 6.58569 122.63 6.46927 122.414 6.74542C122.124 7.11902 121.761 7.50887 121.655 7.95016C121.151 10.0348 120.589 12.1194 120.303 14.2419C119.944 16.9194 119.179 19.3857 117.638 21.5975C117.47 21.8358 117.316 22.0876 117.132 22.3123C116.039 23.6659 114.877 24.1099 113.611 23.6903C112.012 23.1624 111.095 21.9224 111.079 20.2006C111.079 19.2206 111.162 18.2405 111.135 17.2632C111.119 16.5728 110.991 15.8635 110.165 15.6578C109.427 15.4764 108.771 15.8581 108.332 16.7407C108.065 17.2632 107.932 17.8507 107.649 18.3651C106.653 20.1492 105.765 22.0199 104.563 23.6524C102.937 25.8642 101.477 26.2378 99.6166 25.3525C97.2633 24.2344 96.5251 22.8239 96.8396 20.1925C97.0235 18.6385 97.1727 17.0791 97.2527 15.517C97.2421 14.9352 97.1414 14.3587 96.9542 13.8087C96.8316 13.3593 96.1546 13.186 95.7335 13.4243C94.934 13.8899 94.5076 14.648 94.2304 15.5008C93.7773 16.895 93.3189 18.2865 92.9111 19.697C92.2262 22.0632 90.5658 23.4629 88.439 24.3671C87.813 24.615 87.1436 24.7302 86.4722 24.7055C84.1881 24.6568 83.3593 23.8527 83.178 21.538C83.1114 20.6662 83.2313 19.781 83.2207 18.9011C83.2207 18.2459 83.1247 17.5908 83.0554 16.7353C81.9414 16.9383 81.0086 17.0926 80.0811 17.2767C79.6492 17.3551 79.2515 17.5669 78.9425 17.8833C78.6334 18.1997 78.4279 18.6052 78.3541 19.0446C78.239 19.7183 78.1722 20.3996 78.1542 21.0832C78.1036 21.7654 78.1196 22.4558 78.021 23.1299C77.9011 23.942 77.2001 24.5133 76.6591 24.2859C76.0088 24.0151 75.9075 23.425 75.9955 22.8185C76.262 21.0805 76.4699 19.3261 76.8483 17.6124C77.464 14.8429 77.7198 12.0463 77.8957 9.19009C76.9096 9.25777 77.0669 10.0023 76.9123 10.4815C75.9795 13.362 75.1293 16.2696 74.1512 19.1312C73.7571 20.2343 73.2383 21.2872 72.6054 22.269C71.1209 24.6324 68.9089 25.358 66.3423 24.4348C64.3648 23.7228 63.44 22.2311 63.8691 20.0869C64.4021 17.404 65.0977 14.7508 65.7134 12.0815C65.9346 11.1312 66.1718 10.1864 66.3157 9.21175C66.3542 8.72896 66.3128 8.24304 66.1931 7.77418C66.0971 7.29499 65.3749 7.02968 65.0338 7.3735C64.5674 7.84457 64.0077 8.33459 63.7945 8.93019C63.2542 10.3906 62.8369 11.8949 62.5472 13.427C62.1112 15.938 61.1772 18.3328 59.8021 20.4659C59.2251 21.3674 58.5045 22.1652 57.67 22.8267C56.2308 23.9502 54.8316 23.4033 54.3625 21.6409C53.8325 19.7447 53.8371 17.7355 54.3758 15.8419C54.8381 14.1396 55.0182 12.3711 54.9089 10.6087C54.8667 9.9267 54.756 9.25088 54.5784 8.59178C54.532 8.29853 54.3872 8.03057 54.1687 7.83324C53.9502 7.63591 53.6712 7.52132 53.3791 7.50887C52.7448 7.46826 52.1744 7.69838 51.9212 8.25608C51.5646 9.05388 51.286 9.88541 51.0897 10.7387C50.4181 13.5921 49.8531 16.4727 49.1308 19.3126C48.819 20.5336 48.254 21.695 47.7343 22.851C47.483 23.3804 47.1551 23.8686 46.7615 24.2994C45.1305 26.1539 42.8758 25.8967 41.8363 23.6794C41.3886 22.7211 41.1807 21.6409 40.9142 20.604C40.7197 19.8486 40.6637 19.0527 40.4505 18.3055C40.1173 17.1495 39.2645 16.4754 38.1051 16.4997C36.586 16.5295 35.2295 16.9464 34.6005 18.5681C33.8462 20.5119 32.6389 22.1309 31.2797 23.6822C30.0378 25.1008 28.4493 25.6855 26.7143 25.959C25.2805 26.1864 24.3157 25.4581 23.8973 24.0314C23.5242 22.7644 23.6814 21.4947 23.9719 20.2412C24.4143 18.3596 23.7507 16.7515 22.8232 15.2382C21.6532 13.3431 19.2386 12.7718 17.5382 13.9089C16.2057 14.7996 15.7553 16.0287 16.3602 17.6693C16.4889 17.9787 16.551 18.3124 16.5422 18.6481C16.5335 18.9838 16.4542 19.3138 16.3096 19.6158C15.0277 22.5938 12.7197 24.4185 9.81466 25.5096C7.36806 26.43 5.23061 25.4013 3.35169 23.9664C1.07565 22.2256 -0.176963 19.8459 0.0202571 16.8517C0.36406 11.6402 1.8059 6.85371 5.29724 2.86589C7.06423 0.848962 9.11905 -0.407215 11.9121 0.120705C13.6178 0.440164 14.4413 1.29837 14.5959 3.05269C14.7025 4.2466 14.6386 5.41885 13.7964 6.37452C13.4339 6.80227 13.0182 6.85912 12.6024 6.26081ZM29.8086 5.57316C28.7425 5.53255 28.1135 5.84389 27.274 6.50447C25.2991 8.07469 24.2544 12.9722 25.4084 15.1894C25.9867 16.3156 26.741 17.1332 27.911 17.431C30.0191 17.9725 31.9087 17.3634 33.5611 16.0016C33.8969 15.7309 34.0781 15.1894 34.2194 14.7427C35.0189 12.1194 34.3286 9.70447 33.068 7.43306C32.3324 6.13086 30.9972 5.75455 29.8086 5.57316ZM108.609 9.56911C108.502 9.02765 108.342 8.07198 108.118 7.13256C107.761 5.65438 106.786 4.76098 105.344 4.46589C104.134 4.21682 103.316 5.029 102.647 5.85472C100.398 8.63239 99.7712 11.9867 99.558 15.4439C99.502 16.34 100.078 16.9167 100.923 17.0845C102.061 17.3212 103.243 17.2052 104.315 16.7515C107.306 15.5062 108.35 13.029 108.606 9.56911H108.609ZM151.398 13.2618C148.999 14.7265 146.79 16.0287 145.073 18.0294C144.891 18.2552 144.738 18.5036 144.618 18.7684C144.351 19.3099 144.138 19.8514 144.466 20.428C144.793 21.0047 145.814 21.4974 146.465 21.3052C147.021 21.1652 147.539 20.8996 147.981 20.5282C149.684 18.9038 151.043 17.0412 151.491 14.6398C151.552 14.2879 151.443 13.9035 151.395 13.2618H151.398ZM25.7469 18.6574C25.5843 20.0111 25.3844 20.9613 25.3764 21.9062C25.3578 23.739 26.5704 24.6135 28.2574 23.8771C30.259 23.0162 31.7728 21.5813 32.4524 19.3965C32.4737 19.3343 32.3804 19.2368 32.2552 18.9823C30.2723 19.4588 28.2095 19.6429 25.7469 18.6574ZM99.0916 18.9282C98.8491 19.892 98.5399 20.5309 98.5586 21.1617C98.6092 22.897 100.584 24.4348 101.93 23.7444C103.873 22.7481 104.99 21.0507 105.56 18.5383C103.348 19.2774 101.4 19.5996 99.1023 18.9336L99.0916 18.9282Z" fill="#2F4187"/>
</svg>
