<svg width="51" height="25" viewBox="0 0 51 25" fill="none" xmlns="http://www.w3.org/2000/svg">
<path d="M0.00210136 13.7452C-0.0483603 11.9794 0.815797 7.57753 1.97011 5.9871C2.94149 4.64712 4.70765 2.51819 11.8038 0.8714C18.9 -0.77539 37.4825 0.207671 42.0808 1.39111C46.0925 2.42426 50.0663 4.39666 50.798 10.965C51.5297 17.5334 50.1357 20.1194 48.8174 21.6097C47.0008 23.6823 44.3579 25.2539 37.3942 24.9659C29.0995 24.6152 28.7211 21.4782 27.8128 20.5828C26.9045 19.6874 23.9651 19.2679 22.3881 20.5828C19.5812 22.9497 15.2163 25.7298 7.88042 24.8093C0.544562 23.8889 0.0651784 15.8804 0.00210136 13.7452Z" fill="#313F86"/>
</svg>
