<svg width="44" height="44" viewBox="0 0 44 44" fill="none" xmlns="http://www.w3.org/2000/svg">
<path d="M3.05333 10.8725C4.52018 9.42139 6.33561 8.47744 8.09834 7.46203C9.96301 6.66388 11.7781 5.75389 13.5335 4.73708C15.3983 3.93916 17.2133 3.02916 18.9686 2.01214C20.8271 1.20192 22.66 0.313351 24.6947 0.0122801C26.1488 -0.0386259 27.603 0.0688407 29.0315 0.332756L30.002 0.683423L30.0345 0.700874L32.5326 2.02082L34.7772 4.20717C35.9447 5.86341 36.6963 7.75515 37.7089 9.48905L40.272 14.6181L42.8775 20.0635C43.2861 21.8605 43.9012 23.6013 43.9866 25.4793C44.118 28.3741 43.287 30.9141 41.2714 33.0488C39.6052 34.3474 37.5386 35.0251 35.4316 34.9639C33.9106 34.6618 32.4947 33.9773 31.3181 32.9752C29.8642 31.3579 29.3733 29.3759 29.1962 27.2873C29.3312 25.6668 29.6683 24.0563 29.5089 22.4044C29.9191 19.4238 28.5235 16.9029 25.708 15.5328C23.4657 14.2646 21.2058 14.251 18.9282 15.4919C16.5714 16.579 15.2184 18.4051 14.869 20.9704C14.4441 23.398 14.9467 25.5259 16.8645 27.1942C17.1259 27.6552 17.559 27.9944 18.0706 28.139L22.5613 31.0932C23.9142 32.4404 25.0198 33.9116 25.4497 35.8262C25.5872 37.5567 25.1851 39.291 24.2983 40.792C23.0818 42.3102 21.4166 43.4085 19.5418 43.9296C16.5707 44.268 14.032 43.3769 11.7608 41.4638C10.2828 40.2198 9.26983 38.6211 8.04202 37.1842L5.54591 32.3591L2.84794 26.9601C2.02471 25.1222 1.20282 23.2894 0.38228 21.4614L0.0214416 17.6926C-0.076521 16.8505 0.17675 16.072 0.465267 15.3028C1.08765 13.7001 1.96125 12.2047 3.05333 10.8725Z" fill="#EDF8FF"/>
</svg>
