<svg width="132" height="691" viewBox="0 0 132 691" fill="none" xmlns="http://www.w3.org/2000/svg">
<rect x="64" width="1" height="630" fill="#EDF8FF"/>
<path d="M92.6659 657.313L97.3989 654.185C7.99699 594.219 1.64645 624.794 1.64645 624.794C1.64645 624.794 10.1046 624.143 9.07378 624.794C5.25975 627.203 2.63466 627.247 1.24496 631.217C-0.160202 635.232 4.85827 631.619 6.86566 632.558C7.86935 634.229 0.108574 639.478 6.86566 636.838C20.5451 631.494 69.176 648.101 92.6659 657.313Z" fill="#EDF8FF" stroke="#313F86"/>
<path d="M92.2821 640.379L90.4662 654.535L79.5969 663.659L92.4353 669.862L97.7755 683.137L107.526 672.815L121.696 671.896L114.883 659.313L118.301 645.469L104.34 648.015L92.2821 640.379Z" fill="#EDF8FF"/>
</svg>
