<svg width="199" height="903" viewBox="0 0 199 903" fill="none" xmlns="http://www.w3.org/2000/svg">
<rect x="99" width="1" height="827" fill="#EDF8FF"/>
<path d="M59.3736 851.966L52.2158 847.235C187.419 756.548 197.023 802.787 197.023 802.787C197.023 802.787 184.232 801.802 185.791 802.787C191.559 806.43 195.529 806.496 197.63 812.501C199.755 818.573 192.166 813.108 189.13 814.529C187.612 817.055 199.349 824.993 189.13 821.001C168.442 812.92 94.8976 838.035 59.3736 851.966Z" fill="#EDF8FF" stroke="#313F86"/>
<path d="M59.9537 826.356L62.7 847.764L79.1377 861.562L59.7221 870.944L51.6461 891.02L36.9003 875.41L15.4714 874.019L25.7736 854.99L20.6058 834.055L41.7187 837.904L59.9537 826.356Z" fill="#EDF8FF"/>
</svg>
