<svg width="183" height="1251" viewBox="0 0 183 1251" fill="none" xmlns="http://www.w3.org/2000/svg">
<path d="M83.9999 0H84.9999V1186H83.9999V0Z" fill="#EDF8FF"/>
<path d="M44.3733 1210.97L37.2155 1206.23C172.419 1115.55 182.023 1161.79 182.023 1161.79C182.023 1161.79 169.231 1160.8 170.79 1161.79C176.558 1165.43 180.528 1165.5 182.63 1171.5C184.755 1177.57 177.165 1172.11 174.13 1173.53C172.612 1176.05 184.348 1183.99 174.13 1180C153.442 1171.92 79.8973 1197.03 44.3733 1210.97Z" fill="#EDF8FF"/>
<path d="M44.9535 1185.36L47.6998 1206.76L64.1375 1220.56L44.7219 1229.94L36.6459 1250.02L21.9001 1234.41L0.471191 1233.02L10.7734 1213.99L5.60556 1193.05L26.7185 1196.9L44.9535 1185.36Z" fill="#EDF8FF"/>
</svg>
