<svg width="301" height="233" viewBox="0 0 301 233" fill="none" xmlns="http://www.w3.org/2000/svg">
<rect x="94.1274" y="162.993" width="16.7969" height="69.4138" fill="#313F86" stroke="#EDF8FF"/>
<rect x="185.433" y="162.993" width="16.7969" height="69.4138" fill="#313F86" stroke="#EDF8FF"/>
<rect x="111.923" y="162.993" width="16.0231" height="69.4138" fill="#313F86" stroke="#EDF8FF"/>
<rect x="203.23" y="162.993" width="16.0231" height="69.4138" fill="#313F86" stroke="#EDF8FF"/>
<mask id="path-5-inside-1_323_649" fill="white">
<path fill-rule="evenodd" clip-rule="evenodd" d="M191.157 27.9518C180.075 11.1142 161.007 0 139.343 0C105.109 0 77.3576 27.7517 77.3576 61.9851C77.3576 62.1854 77.3586 62.3855 77.3605 62.5854C33.6557 66.8544 0 93.3767 0 125.458C0 160.513 40.1844 188.931 89.7544 188.931C111.771 188.931 131.935 183.325 147.55 174.022C163.427 183.41 182.842 188.93 203.808 188.93C257.486 188.93 301 152.742 301 108.102C301 63.4616 257.486 27.2734 203.808 27.2734C199.52 27.2734 195.298 27.5042 191.157 27.9518Z"/>
</mask>
<path fill-rule="evenodd" clip-rule="evenodd" d="M191.157 27.9518C180.075 11.1142 161.007 0 139.343 0C105.109 0 77.3576 27.7517 77.3576 61.9851C77.3576 62.1854 77.3586 62.3855 77.3605 62.5854C33.6557 66.8544 0 93.3767 0 125.458C0 160.513 40.1844 188.931 89.7544 188.931C111.771 188.931 131.935 183.325 147.55 174.022C163.427 183.41 182.842 188.93 203.808 188.93C257.486 188.93 301 152.742 301 108.102C301 63.4616 257.486 27.2734 203.808 27.2734C199.52 27.2734 195.298 27.5042 191.157 27.9518Z" fill="#EDF8FF"/>
<path d="M191.157 27.9518L190.322 28.5016L190.658 29.0116L191.265 28.946L191.157 27.9518ZM77.3605 62.5854L77.4577 63.5807L78.3691 63.4916L78.3604 62.5759L77.3605 62.5854ZM147.55 174.022L148.059 173.161L147.548 172.859L147.038 173.163L147.55 174.022ZM191.993 27.402C180.734 10.2953 161.357 -1 139.343 -1V1C160.656 1 179.417 11.9331 190.322 28.5016L191.993 27.402ZM139.343 -1C104.557 -1 76.3576 27.1994 76.3576 61.9851H78.3576C78.3576 28.3039 105.662 1 139.343 1V-1ZM76.3576 61.9851C76.3576 62.1886 76.3586 62.3918 76.3605 62.5949L78.3604 62.5759C78.3585 62.3792 78.3576 62.1823 78.3576 61.9851H76.3576ZM77.2632 61.5901C55.2448 63.7409 35.713 71.5002 21.6638 82.8132C7.61314 94.1273 -1 109.043 -1 125.458H1C1 109.792 9.21473 95.4055 22.9181 84.3709C36.623 73.3353 55.7714 65.6989 77.4577 63.5807L77.2632 61.5901ZM-1 125.458C-1 143.397 9.28333 159.539 25.7111 171.156C42.1413 182.776 64.7872 189.931 89.7544 189.931V187.931C65.1516 187.931 42.9203 180.877 26.8658 169.523C10.8089 158.168 1 142.574 1 125.458H-1ZM89.7544 189.931C111.935 189.931 132.279 184.284 148.062 174.881L147.038 173.163C131.591 182.366 111.606 187.931 89.7544 187.931V189.931ZM203.808 187.93C183.017 187.93 163.778 182.456 148.059 173.161L147.041 174.882C163.077 184.364 182.668 189.93 203.808 189.93V187.93ZM300 108.102C300 152.025 257.114 187.93 203.808 187.93V189.93C257.857 189.93 302 153.459 302 108.102H300ZM203.808 28.2734C257.114 28.2734 300 64.1785 300 108.102H302C302 62.7446 257.857 26.2734 203.808 26.2734V28.2734ZM191.265 28.946C195.37 28.5023 199.556 28.2734 203.808 28.2734V26.2734C199.484 26.2734 195.226 26.5062 191.05 26.9576L191.265 28.946Z" fill="#313F86" mask="url(#path-5-inside-1_323_649)"/>
<path d="M93.2401 76.6041C91.3056 78.1517 87.8236 92.8535 79.6989 91.6928C71.5743 90.5321 73.1218 106.395 77.7645 107.168C81.4786 107.787 87.8236 102.268 90.5319 99.4306C90.5318 91.8218 91.0735 76.6041 93.2401 76.6041Z" stroke="#313F86"/>
<path d="M207.372 79.6991C209.307 81.2467 212.789 95.9484 220.913 94.7878C229.038 93.6271 227.49 109.49 222.848 110.263C219.134 110.882 212.789 105.363 210.08 102.526C210.08 94.9167 209.539 79.6991 207.372 79.6991Z" stroke="#313F86"/>
<circle cx="150.258" cy="94.5461" r="60" fill="#EDF8FF" stroke="#313F86"/>
<path d="M157.463 106.078C156.844 101.745 152.563 104.273 150.499 106.078C146.211 101.745 141.749 104.273 140.053 106.078L150.499 116.911C153.079 115.106 158.082 110.412 157.463 106.078Z" fill="#313F86" stroke="#313F86"/>
<path fill-rule="evenodd" clip-rule="evenodd" d="M130.95 96.3544C131.087 95.7659 131.159 95.1526 131.159 94.5225C131.159 90.071 127.551 86.4624 123.099 86.4624C118.648 86.4624 115.039 90.071 115.039 94.5225C115.039 95.1525 115.111 95.7657 115.248 96.3542C116.078 92.7853 119.278 90.1261 123.099 90.1261C126.92 90.1261 130.121 92.7854 130.95 96.3544Z" fill="#313F86"/>
<path fill-rule="evenodd" clip-rule="evenodd" d="M184.439 96.3544C184.576 95.7658 184.648 95.1526 184.648 94.5225C184.648 90.071 181.04 86.4624 176.588 86.4624C172.137 86.4624 168.528 90.071 168.528 94.5225C168.528 95.1525 168.601 95.7657 168.737 96.3542C169.567 92.7853 172.767 90.1261 176.588 90.1261C180.41 90.1261 183.61 92.7854 184.439 96.3544Z" fill="#313F86"/>
<circle cx="150.5" cy="94.5" r="60" fill="#EDF8FF" stroke="#313F86"/>
<path d="M157.705 106.032C157.086 101.699 152.805 104.227 150.741 106.032C146.453 101.699 141.99 104.227 140.295 106.032L150.741 116.865C153.32 115.06 158.324 110.365 157.705 106.032Z" fill="#313F86" stroke="#313F86"/>
<path fill-rule="evenodd" clip-rule="evenodd" d="M131.192 96.3083C131.329 95.7197 131.401 95.1065 131.401 94.4763C131.401 90.0249 127.792 86.4163 123.341 86.4163C118.889 86.4163 115.281 90.0249 115.281 94.4763C115.281 95.1064 115.353 95.7196 115.49 96.308C116.319 92.7392 119.519 90.0799 123.341 90.0799C127.162 90.0799 130.362 92.7393 131.192 96.3083Z" fill="#313F86"/>
<path fill-rule="evenodd" clip-rule="evenodd" d="M184.681 96.3082C184.818 95.7197 184.89 95.1064 184.89 94.4763C184.89 90.0249 181.282 86.4163 176.83 86.4163C172.379 86.4163 168.77 90.0249 168.77 94.4763C168.77 95.1064 168.842 95.7196 168.979 96.3081C169.809 92.7392 173.009 90.0799 176.83 90.0799C180.651 90.0799 183.852 92.7393 184.681 96.3082Z" fill="#313F86"/>
<circle cx="124" cy="95" r="9" fill="#313F86"/>
<circle cx="176" cy="95" r="9" fill="#313F86"/>
</svg>
