<svg width="33" height="33" viewBox="0 0 33 33" fill="none" xmlns="http://www.w3.org/2000/svg">
<path d="M25.5426 19.0494C25.9306 19.3392 25.7211 19.9563 25.2368 19.95L19.9597 19.8804C19.3099 19.8718 18.7285 20.2826 18.5196 20.898L16.8227 25.8953C16.667 26.3539 16.0153 26.3454 15.8717 25.8828L14.3072 20.8425C14.1145 20.2218 13.5441 19.7958 12.8944 19.7873L7.61726 19.7177C7.13294 19.7113 6.93974 19.0889 7.33531 18.8094L11.6455 15.7639C12.1762 15.3889 12.4051 14.7148 12.2124 14.0942L10.6479 9.05385C10.5043 8.59126 11.0365 8.21518 11.4246 8.50502L15.653 11.6631C16.1736 12.052 16.8854 12.0613 17.4162 11.6863L21.7263 8.6408C22.1219 8.36129 22.644 8.75127 22.4883 9.20991L20.7914 14.2072C20.5825 14.8226 20.7935 15.5025 21.3142 15.8913L25.5426 19.0494Z" fill="#EDF8FF" stroke="#313F86"/>
</svg>
