<svg width="36" height="36" viewBox="0 0 36 36" fill="none" xmlns="http://www.w3.org/2000/svg">
<path d="M24.1731 10.8407C24.6102 10.632 25.059 11.1045 24.8281 11.5303L22.312 16.1695C22.0021 16.7407 22.0954 17.4464 22.5429 17.9176L26.1775 21.7442C26.511 22.0954 26.2003 22.6683 25.724 22.5802L20.5344 21.6208C19.8954 21.5026 19.253 21.8094 18.9432 22.3806L16.427 27.0198C16.1961 27.4455 15.5552 27.3271 15.4918 26.8469L14.8006 21.6148C14.7155 20.9705 14.2252 20.4544 13.5862 20.3362L8.3966 19.3768C7.92032 19.2887 7.83496 18.6426 8.27205 18.4339L13.0345 16.1597C13.6209 15.8797 13.9603 15.2539 13.8752 14.6097L13.184 9.3776C13.1205 8.89741 13.7086 8.61658 14.0422 8.96778L17.6767 12.7944C18.1243 13.2655 18.8243 13.3949 19.4107 13.1149L24.1731 10.8407Z" fill="#EDF8FF" stroke="#313F86"/>
</svg>
