<svg width="104" height="104" viewBox="0 0 104 104" fill="none" xmlns="http://www.w3.org/2000/svg">
<path d="M44.6558 12.4895C47.7159 7.06037 55.5341 7.06038 58.5942 12.4895L66.1735 25.9365C67.3151 27.9619 69.2814 29.3905 71.5604 29.8504L86.6914 32.9033C92.8004 34.136 95.2164 41.5715 90.9986 46.1595L80.5519 57.5232C78.9784 59.2348 78.2273 61.5463 78.4942 63.8559L80.2664 79.1898C80.9819 85.3807 74.6569 89.9761 68.99 87.3825L54.9543 80.9587C52.8402 79.9911 50.4098 79.9911 48.2957 80.9587L34.26 87.3825C28.5931 89.9761 22.2681 85.3807 22.9836 79.1897L24.7558 63.8559C25.0227 61.5463 24.2716 59.2348 22.6981 57.5232L12.2514 46.1595C8.0336 41.5715 10.4496 34.136 16.5586 32.9033L31.6896 29.8504C33.9686 29.3905 35.9349 27.9619 37.0765 25.9365L44.6558 12.4895Z" fill="#EDF8FF"/>
</svg>
