<svg width="28" height="28" viewBox="0 0 28 28" fill="none" xmlns="http://www.w3.org/2000/svg">
<path d="M4.17863 14.8C3.70687 14.6902 3.65122 14.0409 4.09741 13.8524L8.95904 11.7989C9.55767 11.546 9.92539 10.9365 9.8699 10.289L9.41918 5.03072C9.37781 4.54813 9.97815 4.29454 10.2953 4.66065L13.7507 8.64976C14.1761 9.14095 14.8695 9.30231 15.4681 9.04945L20.3298 6.99589C20.7759 6.80742 21.2026 7.30002 20.9524 7.71476L18.2263 12.2337C17.8907 12.7902 17.9515 13.4994 18.3769 13.9906L21.8323 17.9797C22.1494 18.3459 21.8128 18.9039 21.341 18.7941L16.2009 17.5979C15.5679 17.4506 14.9121 17.7276 14.5765 18.284L11.8504 22.803C11.6002 23.2177 10.9654 23.07 10.9241 22.5874L10.4733 17.3291C10.4178 16.6816 9.95175 16.1436 9.31882 15.9963L4.17863 14.8Z" fill="#EDF8FF" stroke="#313F86"/>
</svg>
