<svg width="35" height="35" viewBox="0 0 35 35" fill="none" xmlns="http://www.w3.org/2000/svg">
<path d="M11.549 10.1844C11.3974 9.7244 11.9231 9.33915 12.3161 9.62222L16.5986 12.7065C17.1259 13.0863 17.8378 13.0834 18.3619 12.6992L22.6187 9.57947C23.0093 9.29315 23.5381 9.67402 23.3904 10.1353L21.7804 15.1613C21.5821 15.7801 21.8049 16.4563 22.3322 16.836L26.6147 19.9204C27.0077 20.2034 26.8089 20.8241 26.3246 20.8261L21.047 20.848C20.3972 20.8507 19.823 21.2715 19.6248 21.8904L18.0148 26.9164C17.867 27.3776 17.2153 27.3803 17.0637 26.9203L15.412 21.9079C15.2087 21.2907 14.631 20.8746 13.9812 20.8773L8.70366 20.8992C8.21931 20.9012 8.01535 20.2823 8.40602 19.9959L12.6627 16.8762C13.1869 16.492 13.4041 15.8141 13.2007 15.1969L11.549 10.1844Z" fill="#EDF8FF" stroke="#313F86"/>
</svg>
