<svg width="25" height="25" viewBox="0 0 25 25" fill="none" xmlns="http://www.w3.org/2000/svg">
<path d="M12.0245 3.08156C12.1741 2.6209 12.8259 2.6209 12.9755 3.08156L14.6064 8.10081C14.8072 8.71885 15.3831 9.13729 16.033 9.13729H21.3105C21.7949 9.13729 21.9963 9.75709 21.6044 10.0418L17.3348 13.1439C16.8091 13.5258 16.5891 14.2029 16.7899 14.8209L18.4207 19.8402C18.5704 20.3008 18.0432 20.6839 17.6513 20.3992L13.3817 17.2971C12.8559 16.9152 12.1441 16.9152 11.6183 17.2971L7.34869 20.3992C6.95683 20.6839 6.42959 20.3008 6.57927 19.8402L8.21012 14.8209C8.41093 14.2029 8.19095 13.5258 7.66522 13.1439L3.39558 10.0418C3.00373 9.7571 3.20511 9.13729 3.68948 9.13729H8.96703C9.61687 9.13729 10.1928 8.71885 10.3936 8.10081L12.0245 3.08156Z" fill="#EDF8FF" stroke="#313F86"/>
</svg>
