<svg width="33" height="33" viewBox="0 0 33 33" fill="none" xmlns="http://www.w3.org/2000/svg">
<path d="M20.6873 24.9069C20.7351 25.3889 20.1382 25.6505 19.8162 25.2887L16.3078 21.3462C15.8758 20.8607 15.1803 20.7086 14.5851 20.9695L9.75142 23.0879C9.3078 23.2823 8.87455 22.7955 9.11917 22.3774L11.7846 17.8224C12.1128 17.2615 12.0425 16.5531 11.6105 16.0677L8.10203 12.1251C7.78003 11.7633 8.10917 11.2008 8.58236 11.3043L13.7381 12.4316C14.3729 12.5705 15.025 12.2847 15.3532 11.7238L18.0185 7.1688C18.2632 6.75075 18.8998 6.88996 18.9477 7.37196L19.4687 12.6237C19.5328 13.2704 20.0061 13.8022 20.6409 13.941L25.7967 15.0684C26.2699 15.1718 26.3342 15.8204 25.8906 16.0148L21.0569 18.1332C20.4617 18.394 20.1021 19.0085 20.1663 19.6551L20.6873 24.9069Z" fill="#EDF8FF" stroke="#313F86"/>
</svg>
