<svg width="45" height="45" viewBox="0 0 45 45" fill="none" xmlns="http://www.w3.org/2000/svg">
<path d="M21.6508 1.36587C22.042 0.73656 22.958 0.73656 23.3492 1.36587L29.8236 11.779C29.9613 12.0004 30.18 12.1593 30.4331 12.2218L42.3373 15.1615C43.0567 15.3392 43.3398 16.2103 42.8622 16.7769L34.9594 26.1522C34.7913 26.3516 34.7078 26.6087 34.7266 26.8687L35.6094 39.0987C35.6627 39.8378 34.9217 40.3762 34.2353 40.097L22.8767 35.4782C22.6352 35.38 22.3648 35.38 22.1233 35.4782L10.7647 40.097C10.0783 40.3762 9.33728 39.8378 9.39063 39.0987L10.2734 26.8687C10.2922 26.6087 10.2087 26.3516 10.0406 26.1522L2.13782 16.7769C1.66022 16.2103 1.94326 15.3392 2.66268 15.1615L14.5669 12.2218C14.82 12.1593 15.0387 12.0004 15.1764 11.779L21.6508 1.36587Z" fill="#EDF8FF"/>
</svg>
